<svg width="16.000000" height="14.001221" viewBox="0 0 16 14.0012" fill="none" xmlns="http://www.w3.org/2000/svg" xmlns:xlink="http://www.w3.org/1999/xlink">
	<desc>
			Created with Pixso.
	</desc>
	<defs/>
	<path id="arrow-forward" d="M1 8L12.85 8L9.22 12.36C9.14 12.46 9.08 12.57 9.04 12.7C9 12.82 8.99 12.96 9 13.09C9.02 13.35 9.15 13.6 9.35 13.77C9.56 13.93 9.82 14.02 10.09 13.99C10.35 13.97 10.6 13.84 10.77 13.64L15.77 7.64C15.8 7.59 15.83 7.54 15.85 7.48C15.85 7.43 15.91 7.41 15.93 7.35C15.97 7.24 15.99 7.12 16 7C15.99 6.87 15.97 6.75 15.93 6.64C15.93 6.58 15.87 6.56 15.85 6.51C15.83 6.45 15.8 6.4 15.77 6.35L10.77 0.35C10.67 0.24 10.55 0.15 10.42 0.09C10.29 0.03 10.14 -0.01 10 0C9.76 -0.01 9.54 0.08 9.35 0.22C9.25 0.31 9.17 0.41 9.11 0.53C9.05 0.64 9.01 0.77 9 0.9C8.99 1.03 9 1.17 9.04 1.29C9.08 1.42 9.14 1.53 9.22 1.64L12.85 6L1 6C0.73 6 0.48 6.1 0.29 6.29C0.1 6.48 0 6.73 0 7C0 7.26 0.1 7.51 0.29 7.7C0.48 7.89 0.73 8 1 8Z" fill="#E02C6D" fill-opacity="0.870000" fill-rule="nonzero"/>
</svg>
